<svg xmlns="http://www.w3.org/2000/svg" width="600" height="400" viewBox="0 0 600 400">
<rect width="600" height="400" fill="#0D1B2A"/>
<line x1="154" y1="167" x2="446" y2="167" stroke="#B8860B" stroke-width="1.2" opacity="0.7"/>
<line x1="446" y1="167" x2="446" y2="233" stroke="#B8860B" stroke-width="1.7" opacity="0.7"/>
<line x1="446" y1="233" x2="417" y2="106" stroke="#B8860B" stroke-width="1.0" opacity="0.7"/>
<line x1="446" y1="233" x2="365" y2="335" stroke="#B8860B" stroke-width="1.2" opacity="0.7"/>
<line x1="365" y1="335" x2="417" y2="106" stroke="#B8860B" stroke-width="1.1" opacity="0.7"/>
<line x1="417" y1="106" x2="365" y2="65" stroke="#B8860B" stroke-width="1.0" opacity="0.7"/>
<line x1="417" y1="294" x2="300" y2="350" stroke="#B8860B" stroke-width="1.0" opacity="0.7"/>
<line x1="300" y1="350" x2="300" y2="50" stroke="#B8860B" stroke-width="1.0" opacity="0.7"/>
<line x1="183" y1="294" x2="446" y2="233" stroke="#B8860B" stroke-width="1.4" opacity="0.7"/>
<line x1="154" y1="233" x2="365" y2="65" stroke="#B8860B" stroke-width="1.0" opacity="0.7"/>
<line x1="446" y1="233" x2="183" y2="106" stroke="#B8860B" stroke-width="1.0" opacity="0.7"/>
<line x1="446" y1="167" x2="183" y2="106" stroke="#B8860B" stroke-width="1.0" opacity="0.7"/>
<circle cx="300" cy="50" r="16" fill="#22C55E22" stroke="#22C55E" stroke-width="2"/>
<text x="300" y="54" text-anchor="middle" fill="#E2E8F0" font-size="8" font-weight="bold">Fan</text>
<circle cx="365" cy="65" r="16" fill="#22C55E22" stroke="#22C55E" stroke-width="2"/>
<text x="365" y="69" text-anchor="middle" fill="#E2E8F0" font-size="8" font-weight="bold">LPC</text>
<circle cx="417" cy="106" r="16" fill="#DC262622" stroke="#DC2626" stroke-width="2"/>
<text x="417" y="110" text-anchor="middle" fill="#E2E8F0" font-size="8" font-weight="bold">HPC</text>
<circle cx="446" cy="167" r="16" fill="#DC262622" stroke="#DC2626" stroke-width="2"/>
<text x="446" y="171" text-anchor="middle" fill="#E2E8F0" font-size="8" font-weight="bold">Combustor</text>
<circle cx="446" cy="233" r="16" fill="#DC262622" stroke="#DC2626" stroke-width="2"/>
<text x="446" y="237" text-anchor="middle" fill="#E2E8F0" font-size="8" font-weight="bold">HPT</text>
<circle cx="417" cy="294" r="16" fill="#DC262622" stroke="#DC2626" stroke-width="2"/>
<text x="417" y="298" text-anchor="middle" fill="#E2E8F0" font-size="8" font-weight="bold">LPT</text>
<circle cx="365" cy="335" r="16" fill="#DC262622" stroke="#DC2626" stroke-width="2"/>
<text x="365" y="339" text-anchor="middle" fill="#E2E8F0" font-size="8" font-weight="bold">H.Spool</text>
<circle cx="300" cy="350" r="16" fill="#22C55E22" stroke="#22C55E" stroke-width="2"/>
<text x="300" y="354" text-anchor="middle" fill="#E2E8F0" font-size="8" font-weight="bold">L.Spool</text>
<circle cx="235" cy="335" r="16" fill="#F59E0B22" stroke="#F59E0B" stroke-width="2"/>
<text x="235" y="339" text-anchor="middle" fill="#E2E8F0" font-size="8" font-weight="bold">P.Bank</text>
<circle cx="183" cy="294" r="16" fill="#DC262622" stroke="#DC2626" stroke-width="2"/>
<text x="183" y="298" text-anchor="middle" fill="#E2E8F0" font-size="8" font-weight="bold">Cooling</text>
<circle cx="154" cy="233" r="16" fill="#F59E0B22" stroke="#F59E0B" stroke-width="2"/>
<text x="154" y="237" text-anchor="middle" fill="#E2E8F0" font-size="8" font-weight="bold">Bypass</text>
<circle cx="154" cy="167" r="16" fill="#DC262622" stroke="#DC2626" stroke-width="2"/>
<text x="154" y="171" text-anchor="middle" fill="#E2E8F0" font-size="8" font-weight="bold">Fuel</text>
<circle cx="183" cy="106" r="16" fill="#F59E0B22" stroke="#F59E0B" stroke-width="2"/>
<text x="183" y="110" text-anchor="middle" fill="#E2E8F0" font-size="8" font-weight="bold">Snsr.A</text>
<circle cx="235" cy="65" r="16" fill="#22C55E22" stroke="#22C55E" stroke-width="2"/>
<text x="235" y="69" text-anchor="middle" fill="#E2E8F0" font-size="8" font-weight="bold">Snsr.B</text>
</svg>